<svg xmlns="http://www.w3.org/2000/svg" fill="none" viewBox="0 0 16 16" id="Sad-Pepe-Frog--Streamline-Memes.svg"
     height="16" width="16">
    <desc>Sad Pepe Frog Streamline Element: https://streamlinehq.com</desc>
    <path stroke="#6C707E" stroke-linecap="round" stroke-linejoin="round"
          d="m14 7.911 1.089 2.172M0.792 4.476l0.622 -0.366C1.414 2.024 3.105 0.333 5.191 0.333c0.98 0 1.873 0.373 2.545 0.986a3.036 3.036 0 0 1 2.156 -0.895c1.446 0 3.027 0.925 3.338 2.277 0.977 0.957 1.304 1.712 1.41 2.346"
          stroke-width="0.333"></path>
    <path stroke="#6C707E" stroke-linecap="round" stroke-linejoin="round"
          d="M14.123 11.542c0.967 -0.301 1.282 -0.857 0.967 -1.461 0 0 -1.202 0.87 -4.683 0.666 -1.551 -0.091 -5.284 -0.792 -6.553 -0.185 -0.948 0.454 -1.133 1.566 0.215 1.947 1.053 0.297 0.73 -0.258 5.693 0.297 1.479 0.128 3.077 0.14 4.232 -0.297 0.438 -0.165 0.817 -0.73 0.129 -0.967Z"
          stroke-width="0.333"></path>
    <path stroke="#6C707E" stroke-linecap="round" stroke-linejoin="round"
          d="M14.125 11.531c-4.34 0.988 -5.781 -0.355 -9.519 -0.033" stroke-width="0.333"></path>
    <path stroke="#6C707E" stroke-linecap="round" stroke-linejoin="round"
          d="M3.375 6.708c0.54 0.625 2.293 1.447 3.72 1.447 1.744 0 2.47 -0.807 2.47 -1.803 0 -0.346 -0.088 -0.67 -0.276 -0.945"
          stroke-width="0.333"></path>
    <path stroke="#6C707E" stroke-linecap="round" stroke-linejoin="round"
          d="M9.301 5.425c0 -0.608 -1.317 -1.323 -2.461 -1.21 -1.525 0.15 -1.848 0.73 -3.266 1.353 -1.418 0.623 -1.59 0.108 -1.719 0.537 -0.129 0.43 0.41 0.725 1.461 0.602 1.998 0 2.943 -1.282 5.984 -1.282Z"
          stroke-width="0.333"></path>
    <path stroke="#6C707E" stroke-linecap="round" stroke-linejoin="round"
          d="M0.81 12.834c2.561 1.317 5.633 1.93 8.852 1.39 1.191 -0.2 2.198 -0.726 2.939 -1.39"
          stroke-width="0.333"></path>
    <path stroke="#6C707E" stroke-linecap="round" stroke-linejoin="round"
          d="M10.74 13.943c0.842 0.183 1.779 0.988 1.944 1.724" stroke-width="0.333"></path>
    <path stroke="#6C707E" stroke-linecap="round" stroke-linejoin="round"
          d="M3.864 3.489C5.199 2.464 7.32 2.537 8.873 3.323c0.457 -0.629 2.509 -0.987 4.666 -0.201"
          stroke-width="0.333"></path>
    <path stroke="#6C707E" stroke-linecap="round" stroke-linejoin="round"
          d="M7.528 1.143c0.414 0.402 1.176 1.244 1.001 2.034 0.659 0.317 1.309 1.169 0.961 2.614"
          stroke-width="0.333"></path>
    <path stroke="#6C707E" stroke-linecap="round" stroke-linejoin="round"
          d="M9.396 5.592c0.114 0.231 0.169 0.489 0.169 0.761 0 0.283 -0.059 0.551 -0.183 0.789 0.764 0.517 2.065 1.013 3.191 1.013 1.744 0 2.47 -0.807 2.47 -1.803 0 -0.347 -0.074 -0.656 -0.262 -0.931"
          stroke-width="0.333"></path>
    <path stroke="#6C707E" stroke-linecap="round" stroke-linejoin="round"
          d="M12.329 4.215c1.144 -0.113 2.461 0.602 2.461 1.21 -1.68 0 -2.72 0.391 -3.651 0.741 -0.535 0.201 -1.033 0.388 -1.597 0.481a1.867 1.867 0 0 0 0.023 -0.295c0 -0.328 -0.079 -0.636 -0.247 -0.901 0.365 -0.174 0.653 -0.343 0.918 -0.498 0.612 -0.358 1.095 -0.641 2.094 -0.739Z"
          stroke-width="0.333"></path>
    <path fill="#6C707E" fill-rule="evenodd" d="M12.942 7.206a0.508 0.508 0 1 0 0 1.016 0.508 0.508 0 0 0 0 -1.016Z"
          clip-rule="evenodd" stroke-width="0.333"></path>
    <path fill="#6C707E" fill-rule="evenodd" d="M7.399 7.206a0.508 0.508 0 1 0 0 1.016 0.508 0.508 0 0 0 0 -1.016Z"
          clip-rule="evenodd" stroke-width="0.333"></path>
</svg>